<mxfile host="app.diagrams.net" modified="2023-03-11T07:02:38.400Z" agent="5.0 (Windows NT 10.0; Win64; x64) AppleWebKit/537.36 (KHTML, like Gecko) Chrome/110.0.0.0 Safari/537.36 Edg/110.0.1587.63" etag="xQCJY9UR3hmFIY5nl2ft" version="20.8.23" type="github">
  <diagram id="wFE0QG_FPsp0jaGvCLVb" name="Page-1">
    <mxGraphModel dx="989" dy="565" grid="1" gridSize="10" guides="1" tooltips="1" connect="1" arrows="1" fold="1" page="1" pageScale="1" pageWidth="850" pageHeight="1100" math="0" shadow="0">
      <root>
        <mxCell id="0" />
        <mxCell id="1" parent="0" />
        <mxCell id="RxfqTJ2npVJ7gb6i_7Rk-5" value="Team Digitalisierung" style="swimlane;childLayout=stackLayout;resizeParent=1;resizeParentMax=0;startSize=20;html=1;" vertex="1" parent="1">
          <mxGeometry x="30" y="131" width="560" height="410" as="geometry">
            <mxRectangle x="120" y="110" width="70" height="30" as="alternateBounds" />
          </mxGeometry>
        </mxCell>
        <mxCell id="RxfqTJ2npVJ7gb6i_7Rk-6" value="PM" style="swimlane;startSize=20;html=1;" vertex="1" parent="RxfqTJ2npVJ7gb6i_7Rk-5">
          <mxGeometry y="20" width="140" height="390" as="geometry" />
        </mxCell>
        <object label="" status="Completed" id="RxfqTJ2npVJ7gb6i_7Rk-1">
          <mxCell style="swimlane;strokeWidth=2;fontFamily=Permanent Marker;html=0;startSize=1;verticalAlign=bottom;spacingBottom=5;points=[];childLayout=stackLayout;stackBorder=20;stackSpacing=20;resizeLast=0;resizeParent=1;horizontalStack=0;collapsible=0;sketch=1;strokeColor=none;fillStyle=solid;fillColor=#1BA1E2;" vertex="1" parent="RxfqTJ2npVJ7gb6i_7Rk-6">
            <mxGeometry y="24" width="138" height="412" as="geometry" />
          </mxCell>
        </object>
        <object label="&lt;font style=&quot;&quot;&gt;Projekstart&lt;/font&gt;" placeholders="1" id="RxfqTJ2npVJ7gb6i_7Rk-3">
          <mxCell style="whiteSpace=wrap;html=1;strokeWidth=2;fillColor=swimlane;fontStyle=1;spacingTop=0;rounded=1;arcSize=9;points=[];sketch=1;fontFamily=Permanent Marker;hachureGap=8;fillWeight=1;" vertex="1" parent="RxfqTJ2npVJ7gb6i_7Rk-1">
            <mxGeometry x="20" y="21" width="98" height="49" as="geometry" />
          </mxCell>
        </object>
        <object label="&lt;font style=&quot;&quot;&gt;Commuication&lt;/font&gt;" placeholders="1" id="RxfqTJ2npVJ7gb6i_7Rk-4">
          <mxCell style="whiteSpace=wrap;html=1;strokeWidth=2;fillColor=swimlane;fontStyle=1;spacingTop=0;rounded=1;arcSize=9;points=[];sketch=1;fontFamily=Permanent Marker;hachureGap=8;fillWeight=1;" vertex="1" parent="RxfqTJ2npVJ7gb6i_7Rk-1">
            <mxGeometry x="20" y="90" width="98" height="49" as="geometry" />
          </mxCell>
        </object>
        <object label="Coordination" placeholders="1" id="RxfqTJ2npVJ7gb6i_7Rk-2">
          <mxCell style="whiteSpace=wrap;html=1;strokeWidth=2;fillColor=swimlane;fontStyle=1;spacingTop=0;rounded=1;arcSize=9;points=[];sketch=1;fontFamily=Permanent Marker;hachureGap=8;fillWeight=1;" vertex="1" parent="RxfqTJ2npVJ7gb6i_7Rk-1">
            <mxGeometry x="20" y="159" width="98" height="49" as="geometry" />
          </mxCell>
        </object>
        <object label="Controlling" placeholders="1" id="RxfqTJ2npVJ7gb6i_7Rk-10">
          <mxCell style="whiteSpace=wrap;html=1;strokeWidth=2;fillColor=swimlane;fontStyle=1;spacingTop=0;rounded=1;arcSize=9;points=[];sketch=1;fontFamily=Permanent Marker;hachureGap=8;fillWeight=1;" vertex="1" parent="RxfqTJ2npVJ7gb6i_7Rk-1">
            <mxGeometry x="20" y="228" width="98" height="50" as="geometry" />
          </mxCell>
        </object>
        <object label="Abschluss" placeholders="1" id="RxfqTJ2npVJ7gb6i_7Rk-11">
          <mxCell style="whiteSpace=wrap;html=1;strokeWidth=2;fillColor=swimlane;fontStyle=1;spacingTop=0;rounded=1;arcSize=9;points=[];sketch=1;fontFamily=Permanent Marker;hachureGap=8;fillWeight=1;" vertex="1" parent="RxfqTJ2npVJ7gb6i_7Rk-1">
            <mxGeometry x="20" y="298" width="98" height="50" as="geometry" />
          </mxCell>
        </object>
        <mxCell id="RxfqTJ2npVJ7gb6i_7Rk-7" value="Vorbereitung" style="swimlane;startSize=20;html=1;" vertex="1" parent="RxfqTJ2npVJ7gb6i_7Rk-5">
          <mxGeometry x="140" y="20" width="140" height="390" as="geometry" />
        </mxCell>
        <object label="" status="Completed" id="RxfqTJ2npVJ7gb6i_7Rk-12">
          <mxCell style="swimlane;strokeWidth=2;fontFamily=Permanent Marker;html=0;startSize=1;verticalAlign=bottom;spacingBottom=5;points=[];childLayout=stackLayout;stackBorder=20;stackSpacing=20;resizeLast=0;resizeParent=1;horizontalStack=0;collapsible=0;sketch=1;strokeColor=none;fillStyle=solid;fillColor=#1BA1E2;" vertex="1" parent="RxfqTJ2npVJ7gb6i_7Rk-7">
            <mxGeometry x="-3" y="28" width="143" height="412" as="geometry" />
          </mxCell>
        </object>
        <object label="&lt;font style=&quot;&quot;&gt;1.1 Bedarfs-erhebung&lt;/font&gt;" placeholders="1" id="RxfqTJ2npVJ7gb6i_7Rk-13">
          <mxCell style="whiteSpace=wrap;html=1;strokeWidth=2;fillColor=#f8cecc;fontStyle=1;spacingTop=0;rounded=1;arcSize=9;points=[];sketch=1;fontFamily=Permanent Marker;hachureGap=8;fillWeight=1;strokeColor=#b85450;" vertex="1" parent="RxfqTJ2npVJ7gb6i_7Rk-12">
            <mxGeometry x="20" y="21" width="103" height="49" as="geometry" />
          </mxCell>
        </object>
        <object label="&lt;font style=&quot;&quot;&gt;1.2 Abgleich Expertise Zentrum&lt;/font&gt;" placeholders="1" id="RxfqTJ2npVJ7gb6i_7Rk-14">
          <mxCell style="whiteSpace=wrap;html=1;strokeWidth=2;fillColor=#f8cecc;fontStyle=1;spacingTop=0;rounded=1;arcSize=9;points=[];sketch=1;fontFamily=Permanent Marker;hachureGap=8;fillWeight=1;strokeColor=#b85450;" vertex="1" parent="RxfqTJ2npVJ7gb6i_7Rk-12">
            <mxGeometry x="20" y="90" width="103" height="49" as="geometry" />
          </mxCell>
        </object>
        <mxCell id="RxfqTJ2npVJ7gb6i_7Rk-8" value="Implementierung&amp;nbsp; &amp;nbsp; &amp;nbsp; &amp;nbsp; &amp;nbsp; &amp;nbsp; &amp;nbsp; &amp;nbsp; &amp;nbsp; &amp;nbsp; &amp;nbsp; &amp;nbsp; &amp;nbsp; &amp;nbsp; &amp;nbsp; &amp;nbsp; &amp;nbsp; &amp;nbsp; &amp;nbsp; &amp;nbsp; &amp;nbsp;&amp;nbsp;" style="swimlane;startSize=20;html=1;" vertex="1" parent="RxfqTJ2npVJ7gb6i_7Rk-5">
          <mxGeometry x="280" y="20" width="280" height="390" as="geometry" />
        </mxCell>
        <mxCell id="RxfqTJ2npVJ7gb6i_7Rk-9" value="Prozesse" style="swimlane;startSize=20;html=1;" vertex="1" parent="RxfqTJ2npVJ7gb6i_7Rk-8">
          <mxGeometry x="140" width="140" height="390" as="geometry" />
        </mxCell>
        <object label="" status="Completed" id="RxfqTJ2npVJ7gb6i_7Rk-24">
          <mxCell style="swimlane;strokeWidth=2;fontFamily=Permanent Marker;html=0;startSize=1;verticalAlign=bottom;spacingBottom=5;points=[];childLayout=stackLayout;stackBorder=20;stackSpacing=20;resizeLast=0;resizeParent=1;horizontalStack=0;collapsible=0;sketch=1;strokeColor=none;fillStyle=solid;fillColor=#1BA1E2;" vertex="1" parent="RxfqTJ2npVJ7gb6i_7Rk-9">
            <mxGeometry x="1" y="30" width="138" height="412" as="geometry" />
          </mxCell>
        </object>
        <object label="&lt;font style=&quot;&quot;&gt;3.1. Knowledge management Strategy&lt;/font&gt;" placeholders="1" id="RxfqTJ2npVJ7gb6i_7Rk-26">
          <mxCell style="whiteSpace=wrap;html=1;strokeWidth=2;fillColor=#d5e8d4;fontStyle=1;spacingTop=0;rounded=1;arcSize=9;points=[];sketch=1;fontFamily=Permanent Marker;hachureGap=8;fillWeight=1;strokeColor=#82b366;" vertex="1" parent="RxfqTJ2npVJ7gb6i_7Rk-24">
            <mxGeometry x="20" y="21" width="98" height="49" as="geometry" />
          </mxCell>
        </object>
        <object label="" status="Completed" id="RxfqTJ2npVJ7gb6i_7Rk-21">
          <mxCell style="swimlane;strokeWidth=2;fontFamily=Permanent Marker;html=0;startSize=1;verticalAlign=bottom;spacingBottom=5;points=[];childLayout=stackLayout;stackBorder=20;stackSpacing=20;resizeLast=0;resizeParent=1;horizontalStack=0;collapsible=0;sketch=1;strokeColor=none;fillStyle=solid;fillColor=#1BA1E2;" vertex="1" parent="RxfqTJ2npVJ7gb6i_7Rk-8">
            <mxGeometry x="-10" y="29" width="160" height="431" as="geometry" />
          </mxCell>
        </object>
        <object label="&lt;font style=&quot;&quot;&gt;2.1 First viable Team&lt;/font&gt;" placeholders="1" id="RxfqTJ2npVJ7gb6i_7Rk-22">
          <mxCell style="whiteSpace=wrap;html=1;strokeWidth=2;fillColor=#fff2cc;fontStyle=1;spacingTop=0;rounded=1;arcSize=9;points=[];sketch=1;fontFamily=Permanent Marker;hachureGap=8;fillWeight=1;strokeColor=#d6b656;" vertex="1" parent="RxfqTJ2npVJ7gb6i_7Rk-21">
            <mxGeometry x="20" y="21" width="120" height="50" as="geometry" />
          </mxCell>
        </object>
        <object label="&lt;font style=&quot;&quot;&gt;2.2 Hiring Team member(s)&lt;/font&gt;" placeholders="1" id="RxfqTJ2npVJ7gb6i_7Rk-23">
          <mxCell style="whiteSpace=wrap;html=1;strokeWidth=2;fillColor=#fff2cc;fontStyle=1;spacingTop=0;rounded=1;arcSize=9;points=[];sketch=1;fontFamily=Permanent Marker;hachureGap=8;fillWeight=1;strokeColor=#d6b656;" vertex="1" parent="RxfqTJ2npVJ7gb6i_7Rk-21">
            <mxGeometry x="20" y="91" width="120" height="49" as="geometry" />
          </mxCell>
        </object>
      </root>
    </mxGraphModel>
  </diagram>
</mxfile>
